<mxfile host="app.diagrams.net" modified="2021-04-16T23:17:50.785Z" agent="5.0 (Windows NT 10.0; Win64; x64) AppleWebKit/537.36 (KHTML, like Gecko) Chrome/89.0.4389.90 Safari/537.36 OPR/75.0.3969.149" etag="6VaVtBkOVVopt5niy9Oz" version="14.6.1" type="github">
  <diagram id="00_ZELEEjl-MA6cbD2Sc" name="Page-1">
    <mxGraphModel dx="1776" dy="984" grid="1" gridSize="10" guides="1" tooltips="1" connect="1" arrows="1" fold="1" page="1" pageScale="1" pageWidth="827" pageHeight="1169" math="0" shadow="0">
      <root>
        <mxCell id="0" />
        <mxCell id="1" parent="0" />
        <mxCell id="nSnMv2GYE71Fe18mCQMV-1" value="" style="rounded=0;whiteSpace=wrap;html=1;" vertex="1" parent="1">
          <mxGeometry x="160" y="240" width="40" height="300" as="geometry" />
        </mxCell>
        <mxCell id="nSnMv2GYE71Fe18mCQMV-4" value="" style="ellipse;whiteSpace=wrap;html=1;" vertex="1" parent="1">
          <mxGeometry x="165" y="500" width="30" height="30" as="geometry" />
        </mxCell>
        <mxCell id="nSnMv2GYE71Fe18mCQMV-7" value="" style="ellipse;whiteSpace=wrap;html=1;" vertex="1" parent="1">
          <mxGeometry x="165" y="460" width="30" height="30" as="geometry" />
        </mxCell>
        <mxCell id="nSnMv2GYE71Fe18mCQMV-8" value="" style="ellipse;whiteSpace=wrap;html=1;" vertex="1" parent="1">
          <mxGeometry x="165" y="420" width="30" height="30" as="geometry" />
        </mxCell>
        <mxCell id="nSnMv2GYE71Fe18mCQMV-9" value="" style="ellipse;whiteSpace=wrap;html=1;" vertex="1" parent="1">
          <mxGeometry x="165" y="250" width="30" height="30" as="geometry" />
        </mxCell>
        <mxCell id="nSnMv2GYE71Fe18mCQMV-10" value="" style="ellipse;whiteSpace=wrap;html=1;" vertex="1" parent="1">
          <mxGeometry x="165" y="290" width="30" height="30" as="geometry" />
        </mxCell>
        <mxCell id="nSnMv2GYE71Fe18mCQMV-11" value="" style="ellipse;whiteSpace=wrap;html=1;" vertex="1" parent="1">
          <mxGeometry x="165" y="330" width="30" height="30" as="geometry" />
        </mxCell>
        <mxCell id="nSnMv2GYE71Fe18mCQMV-13" value="" style="shape=image;html=1;verticalAlign=top;verticalLabelPosition=bottom;labelBackgroundColor=#ffffff;imageAspect=0;aspect=fixed;image=https://cdn1.iconfinder.com/data/icons/heroicons-ui/24/dots-vertical-128.png" vertex="1" parent="1">
          <mxGeometry x="160" y="371" width="38" height="38" as="geometry" />
        </mxCell>
        <mxCell id="nSnMv2GYE71Fe18mCQMV-14" value="" style="rounded=0;whiteSpace=wrap;html=1;" vertex="1" parent="1">
          <mxGeometry x="300" y="240" width="40" height="300" as="geometry" />
        </mxCell>
        <mxCell id="nSnMv2GYE71Fe18mCQMV-15" value="" style="ellipse;whiteSpace=wrap;html=1;" vertex="1" parent="1">
          <mxGeometry x="305" y="500" width="30" height="30" as="geometry" />
        </mxCell>
        <mxCell id="nSnMv2GYE71Fe18mCQMV-16" value="" style="ellipse;whiteSpace=wrap;html=1;" vertex="1" parent="1">
          <mxGeometry x="305" y="460" width="30" height="30" as="geometry" />
        </mxCell>
        <mxCell id="nSnMv2GYE71Fe18mCQMV-17" value="" style="ellipse;whiteSpace=wrap;html=1;" vertex="1" parent="1">
          <mxGeometry x="305" y="420" width="30" height="30" as="geometry" />
        </mxCell>
        <mxCell id="nSnMv2GYE71Fe18mCQMV-18" value="" style="ellipse;whiteSpace=wrap;html=1;" vertex="1" parent="1">
          <mxGeometry x="305" y="250" width="30" height="30" as="geometry" />
        </mxCell>
        <mxCell id="nSnMv2GYE71Fe18mCQMV-19" value="" style="ellipse;whiteSpace=wrap;html=1;" vertex="1" parent="1">
          <mxGeometry x="305" y="290" width="30" height="30" as="geometry" />
        </mxCell>
        <mxCell id="nSnMv2GYE71Fe18mCQMV-20" value="" style="ellipse;whiteSpace=wrap;html=1;" vertex="1" parent="1">
          <mxGeometry x="305" y="330" width="30" height="30" as="geometry" />
        </mxCell>
        <mxCell id="nSnMv2GYE71Fe18mCQMV-21" value="" style="shape=image;html=1;verticalAlign=top;verticalLabelPosition=bottom;labelBackgroundColor=#ffffff;imageAspect=0;aspect=fixed;image=https://cdn1.iconfinder.com/data/icons/heroicons-ui/24/dots-vertical-128.png" vertex="1" parent="1">
          <mxGeometry x="300" y="371" width="38" height="38" as="geometry" />
        </mxCell>
        <mxCell id="nSnMv2GYE71Fe18mCQMV-22" value="" style="rounded=0;whiteSpace=wrap;html=1;" vertex="1" parent="1">
          <mxGeometry x="440" y="240" width="40" height="300" as="geometry" />
        </mxCell>
        <mxCell id="nSnMv2GYE71Fe18mCQMV-23" value="" style="ellipse;whiteSpace=wrap;html=1;" vertex="1" parent="1">
          <mxGeometry x="445" y="500" width="30" height="30" as="geometry" />
        </mxCell>
        <mxCell id="nSnMv2GYE71Fe18mCQMV-24" value="" style="ellipse;whiteSpace=wrap;html=1;" vertex="1" parent="1">
          <mxGeometry x="445" y="460" width="30" height="30" as="geometry" />
        </mxCell>
        <mxCell id="nSnMv2GYE71Fe18mCQMV-25" value="" style="ellipse;whiteSpace=wrap;html=1;" vertex="1" parent="1">
          <mxGeometry x="445" y="420" width="30" height="30" as="geometry" />
        </mxCell>
        <mxCell id="nSnMv2GYE71Fe18mCQMV-26" value="" style="ellipse;whiteSpace=wrap;html=1;" vertex="1" parent="1">
          <mxGeometry x="445" y="250" width="30" height="30" as="geometry" />
        </mxCell>
        <mxCell id="nSnMv2GYE71Fe18mCQMV-27" value="" style="ellipse;whiteSpace=wrap;html=1;" vertex="1" parent="1">
          <mxGeometry x="445" y="290" width="30" height="30" as="geometry" />
        </mxCell>
        <mxCell id="nSnMv2GYE71Fe18mCQMV-28" value="" style="ellipse;whiteSpace=wrap;html=1;" vertex="1" parent="1">
          <mxGeometry x="445" y="330" width="30" height="30" as="geometry" />
        </mxCell>
        <mxCell id="nSnMv2GYE71Fe18mCQMV-29" value="" style="shape=image;html=1;verticalAlign=top;verticalLabelPosition=bottom;labelBackgroundColor=#ffffff;imageAspect=0;aspect=fixed;image=https://cdn1.iconfinder.com/data/icons/heroicons-ui/24/dots-vertical-128.png" vertex="1" parent="1">
          <mxGeometry x="440" y="371" width="38" height="38" as="geometry" />
        </mxCell>
        <mxCell id="nSnMv2GYE71Fe18mCQMV-30" value="" style="endArrow=classic;html=1;" edge="1" parent="1" target="nSnMv2GYE71Fe18mCQMV-9">
          <mxGeometry width="50" height="50" relative="1" as="geometry">
            <mxPoint x="100" y="264" as="sourcePoint" />
            <mxPoint x="440" y="400" as="targetPoint" />
          </mxGeometry>
        </mxCell>
        <mxCell id="nSnMv2GYE71Fe18mCQMV-31" value="" style="endArrow=classic;html=1;" edge="1" parent="1">
          <mxGeometry width="50" height="50" relative="1" as="geometry">
            <mxPoint x="100" y="304.5" as="sourcePoint" />
            <mxPoint x="165.00117173768876" y="305.3125146467212" as="targetPoint" />
          </mxGeometry>
        </mxCell>
        <mxCell id="nSnMv2GYE71Fe18mCQMV-32" value="" style="endArrow=classic;html=1;" edge="1" parent="1">
          <mxGeometry width="50" height="50" relative="1" as="geometry">
            <mxPoint x="100" y="344.5" as="sourcePoint" />
            <mxPoint x="165.00117173768876" y="345.3125146467212" as="targetPoint" />
          </mxGeometry>
        </mxCell>
        <mxCell id="nSnMv2GYE71Fe18mCQMV-33" value="" style="endArrow=classic;html=1;" edge="1" parent="1">
          <mxGeometry width="50" height="50" relative="1" as="geometry">
            <mxPoint x="100" y="434.5" as="sourcePoint" />
            <mxPoint x="165.00117173768876" y="435.3125146467212" as="targetPoint" />
          </mxGeometry>
        </mxCell>
        <mxCell id="nSnMv2GYE71Fe18mCQMV-34" value="" style="endArrow=classic;html=1;" edge="1" parent="1">
          <mxGeometry width="50" height="50" relative="1" as="geometry">
            <mxPoint x="100" y="474.5" as="sourcePoint" />
            <mxPoint x="165.00117173768876" y="475.3125146467212" as="targetPoint" />
          </mxGeometry>
        </mxCell>
        <mxCell id="nSnMv2GYE71Fe18mCQMV-35" value="" style="endArrow=classic;html=1;" edge="1" parent="1">
          <mxGeometry width="50" height="50" relative="1" as="geometry">
            <mxPoint x="100" y="514.5" as="sourcePoint" />
            <mxPoint x="165.00117173768876" y="515.3125146467212" as="targetPoint" />
          </mxGeometry>
        </mxCell>
        <mxCell id="nSnMv2GYE71Fe18mCQMV-37" value="" style="endArrow=classic;html=1;entryX=0;entryY=0.5;entryDx=0;entryDy=0;" edge="1" parent="1" target="nSnMv2GYE71Fe18mCQMV-18">
          <mxGeometry width="50" height="50" relative="1" as="geometry">
            <mxPoint x="195" y="264.5" as="sourcePoint" />
            <mxPoint x="260.00117173768876" y="265.3125146467212" as="targetPoint" />
          </mxGeometry>
        </mxCell>
        <mxCell id="nSnMv2GYE71Fe18mCQMV-38" value="" style="endArrow=classic;html=1;entryX=0;entryY=0.5;entryDx=0;entryDy=0;exitX=1;exitY=0.5;exitDx=0;exitDy=0;" edge="1" parent="1" source="nSnMv2GYE71Fe18mCQMV-9" target="nSnMv2GYE71Fe18mCQMV-19">
          <mxGeometry width="50" height="50" relative="1" as="geometry">
            <mxPoint x="205" y="274.5" as="sourcePoint" />
            <mxPoint x="315" y="275" as="targetPoint" />
          </mxGeometry>
        </mxCell>
        <mxCell id="nSnMv2GYE71Fe18mCQMV-39" value="" style="endArrow=classic;html=1;entryX=0;entryY=0.5;entryDx=0;entryDy=0;exitX=1;exitY=0.5;exitDx=0;exitDy=0;" edge="1" parent="1" source="nSnMv2GYE71Fe18mCQMV-9" target="nSnMv2GYE71Fe18mCQMV-20">
          <mxGeometry width="50" height="50" relative="1" as="geometry">
            <mxPoint x="200" y="270" as="sourcePoint" />
            <mxPoint x="325" y="285" as="targetPoint" />
          </mxGeometry>
        </mxCell>
        <mxCell id="nSnMv2GYE71Fe18mCQMV-40" value="" style="endArrow=classic;html=1;exitX=1;exitY=0.5;exitDx=0;exitDy=0;" edge="1" parent="1" source="nSnMv2GYE71Fe18mCQMV-9">
          <mxGeometry width="50" height="50" relative="1" as="geometry">
            <mxPoint x="200" y="270" as="sourcePoint" />
            <mxPoint x="305" y="430" as="targetPoint" />
          </mxGeometry>
        </mxCell>
        <mxCell id="nSnMv2GYE71Fe18mCQMV-41" value="" style="endArrow=classic;html=1;entryX=0;entryY=0;entryDx=0;entryDy=0;exitX=1;exitY=0.5;exitDx=0;exitDy=0;" edge="1" parent="1" source="nSnMv2GYE71Fe18mCQMV-9" target="nSnMv2GYE71Fe18mCQMV-16">
          <mxGeometry width="50" height="50" relative="1" as="geometry">
            <mxPoint x="235" y="304.5" as="sourcePoint" />
            <mxPoint x="345" y="305" as="targetPoint" />
          </mxGeometry>
        </mxCell>
        <mxCell id="nSnMv2GYE71Fe18mCQMV-42" value="" style="endArrow=classic;html=1;entryX=0;entryY=0;entryDx=0;entryDy=0;" edge="1" parent="1" target="nSnMv2GYE71Fe18mCQMV-15">
          <mxGeometry width="50" height="50" relative="1" as="geometry">
            <mxPoint x="200" y="270" as="sourcePoint" />
            <mxPoint x="355" y="315" as="targetPoint" />
          </mxGeometry>
        </mxCell>
        <mxCell id="nSnMv2GYE71Fe18mCQMV-43" value="" style="endArrow=classic;html=1;exitX=1;exitY=0.5;exitDx=0;exitDy=0;entryX=0;entryY=0.5;entryDx=0;entryDy=0;" edge="1" parent="1" source="nSnMv2GYE71Fe18mCQMV-10" target="nSnMv2GYE71Fe18mCQMV-18">
          <mxGeometry width="50" height="50" relative="1" as="geometry">
            <mxPoint x="200" y="300" as="sourcePoint" />
            <mxPoint x="310" y="275" as="targetPoint" />
          </mxGeometry>
        </mxCell>
        <mxCell id="nSnMv2GYE71Fe18mCQMV-44" value="" style="endArrow=classic;html=1;entryX=0;entryY=0.5;entryDx=0;entryDy=0;exitX=1;exitY=0.5;exitDx=0;exitDy=0;" edge="1" parent="1" source="nSnMv2GYE71Fe18mCQMV-10" target="nSnMv2GYE71Fe18mCQMV-19">
          <mxGeometry width="50" height="50" relative="1" as="geometry">
            <mxPoint x="200" y="310" as="sourcePoint" />
            <mxPoint x="315" y="315" as="targetPoint" />
          </mxGeometry>
        </mxCell>
        <mxCell id="nSnMv2GYE71Fe18mCQMV-45" value="" style="endArrow=classic;html=1;entryX=0;entryY=0.5;entryDx=0;entryDy=0;exitX=1;exitY=0.5;exitDx=0;exitDy=0;" edge="1" parent="1" source="nSnMv2GYE71Fe18mCQMV-10" target="nSnMv2GYE71Fe18mCQMV-20">
          <mxGeometry width="50" height="50" relative="1" as="geometry">
            <mxPoint x="190" y="300" as="sourcePoint" />
            <mxPoint x="315" y="355" as="targetPoint" />
          </mxGeometry>
        </mxCell>
        <mxCell id="nSnMv2GYE71Fe18mCQMV-46" value="" style="endArrow=classic;html=1;exitX=1;exitY=0.5;exitDx=0;exitDy=0;entryX=0.027;entryY=0.336;entryDx=0;entryDy=0;entryPerimeter=0;" edge="1" parent="1" source="nSnMv2GYE71Fe18mCQMV-10" target="nSnMv2GYE71Fe18mCQMV-17">
          <mxGeometry width="50" height="50" relative="1" as="geometry">
            <mxPoint x="200" y="310" as="sourcePoint" />
            <mxPoint x="315" y="440" as="targetPoint" />
          </mxGeometry>
        </mxCell>
        <mxCell id="nSnMv2GYE71Fe18mCQMV-47" value="" style="endArrow=classic;html=1;entryX=0;entryY=0;entryDx=0;entryDy=0;exitX=1;exitY=0.5;exitDx=0;exitDy=0;" edge="1" parent="1" source="nSnMv2GYE71Fe18mCQMV-10" target="nSnMv2GYE71Fe18mCQMV-16">
          <mxGeometry width="50" height="50" relative="1" as="geometry">
            <mxPoint x="200" y="310" as="sourcePoint" />
            <mxPoint x="319.3933982822018" y="474.3933982822018" as="targetPoint" />
          </mxGeometry>
        </mxCell>
        <mxCell id="nSnMv2GYE71Fe18mCQMV-48" value="" style="endArrow=classic;html=1;entryX=0;entryY=0;entryDx=0;entryDy=0;exitX=1;exitY=0.5;exitDx=0;exitDy=0;" edge="1" parent="1" source="nSnMv2GYE71Fe18mCQMV-10" target="nSnMv2GYE71Fe18mCQMV-15">
          <mxGeometry width="50" height="50" relative="1" as="geometry">
            <mxPoint x="210" y="280" as="sourcePoint" />
            <mxPoint x="319.3933982822018" y="514.3933982822018" as="targetPoint" />
          </mxGeometry>
        </mxCell>
        <mxCell id="nSnMv2GYE71Fe18mCQMV-49" value="" style="endArrow=classic;html=1;exitX=1;exitY=0.5;exitDx=0;exitDy=0;entryX=0;entryY=0.5;entryDx=0;entryDy=0;" edge="1" parent="1" source="nSnMv2GYE71Fe18mCQMV-11" target="nSnMv2GYE71Fe18mCQMV-18">
          <mxGeometry width="50" height="50" relative="1" as="geometry">
            <mxPoint x="205" y="315" as="sourcePoint" />
            <mxPoint x="320" y="285" as="targetPoint" />
          </mxGeometry>
        </mxCell>
        <mxCell id="nSnMv2GYE71Fe18mCQMV-50" value="" style="endArrow=classic;html=1;entryX=0;entryY=0.5;entryDx=0;entryDy=0;exitX=1;exitY=0.5;exitDx=0;exitDy=0;" edge="1" parent="1" source="nSnMv2GYE71Fe18mCQMV-11" target="nSnMv2GYE71Fe18mCQMV-19">
          <mxGeometry width="50" height="50" relative="1" as="geometry">
            <mxPoint x="205" y="315" as="sourcePoint" />
            <mxPoint x="315" y="315" as="targetPoint" />
          </mxGeometry>
        </mxCell>
        <mxCell id="nSnMv2GYE71Fe18mCQMV-51" value="" style="endArrow=classic;html=1;entryX=0;entryY=0.5;entryDx=0;entryDy=0;exitX=1;exitY=0.5;exitDx=0;exitDy=0;" edge="1" parent="1" source="nSnMv2GYE71Fe18mCQMV-11" target="nSnMv2GYE71Fe18mCQMV-20">
          <mxGeometry width="50" height="50" relative="1" as="geometry">
            <mxPoint x="205" y="315" as="sourcePoint" />
            <mxPoint x="315" y="355" as="targetPoint" />
          </mxGeometry>
        </mxCell>
        <mxCell id="nSnMv2GYE71Fe18mCQMV-52" value="" style="endArrow=classic;html=1;exitX=1;exitY=0.5;exitDx=0;exitDy=0;entryX=0.028;entryY=0.318;entryDx=0;entryDy=0;entryPerimeter=0;" edge="1" parent="1" source="nSnMv2GYE71Fe18mCQMV-11" target="nSnMv2GYE71Fe18mCQMV-17">
          <mxGeometry width="50" height="50" relative="1" as="geometry">
            <mxPoint x="205" y="315" as="sourcePoint" />
            <mxPoint x="315.81000000000006" y="440.08000000000004" as="targetPoint" />
          </mxGeometry>
        </mxCell>
        <mxCell id="nSnMv2GYE71Fe18mCQMV-53" value="" style="endArrow=classic;html=1;entryX=0;entryY=0;entryDx=0;entryDy=0;exitX=1;exitY=0.5;exitDx=0;exitDy=0;" edge="1" parent="1" source="nSnMv2GYE71Fe18mCQMV-11" target="nSnMv2GYE71Fe18mCQMV-16">
          <mxGeometry width="50" height="50" relative="1" as="geometry">
            <mxPoint x="190" y="350" as="sourcePoint" />
            <mxPoint x="319.3933982822018" y="474.3933982822018" as="targetPoint" />
          </mxGeometry>
        </mxCell>
        <mxCell id="nSnMv2GYE71Fe18mCQMV-54" value="" style="endArrow=classic;html=1;entryX=0;entryY=0;entryDx=0;entryDy=0;exitX=1;exitY=0.5;exitDx=0;exitDy=0;" edge="1" parent="1" source="nSnMv2GYE71Fe18mCQMV-11" target="nSnMv2GYE71Fe18mCQMV-15">
          <mxGeometry width="50" height="50" relative="1" as="geometry">
            <mxPoint x="205" y="315" as="sourcePoint" />
            <mxPoint x="319.3933982822018" y="514.3933982822018" as="targetPoint" />
          </mxGeometry>
        </mxCell>
        <mxCell id="nSnMv2GYE71Fe18mCQMV-55" value="" style="endArrow=classic;html=1;exitX=1;exitY=0.5;exitDx=0;exitDy=0;" edge="1" parent="1">
          <mxGeometry width="50" height="50" relative="1" as="geometry">
            <mxPoint x="195" y="435.3" as="sourcePoint" />
            <mxPoint x="305" y="270" as="targetPoint" />
          </mxGeometry>
        </mxCell>
        <mxCell id="nSnMv2GYE71Fe18mCQMV-56" value="" style="endArrow=classic;html=1;entryX=0;entryY=0.5;entryDx=0;entryDy=0;exitX=1;exitY=0.5;exitDx=0;exitDy=0;" edge="1" parent="1" target="nSnMv2GYE71Fe18mCQMV-19">
          <mxGeometry width="50" height="50" relative="1" as="geometry">
            <mxPoint x="195" y="435.3" as="sourcePoint" />
            <mxPoint x="305" y="395.3" as="targetPoint" />
          </mxGeometry>
        </mxCell>
        <mxCell id="nSnMv2GYE71Fe18mCQMV-57" value="" style="endArrow=classic;html=1;exitX=1;exitY=0.5;exitDx=0;exitDy=0;" edge="1" parent="1">
          <mxGeometry width="50" height="50" relative="1" as="geometry">
            <mxPoint x="195" y="435.3" as="sourcePoint" />
            <mxPoint x="305" y="350" as="targetPoint" />
          </mxGeometry>
        </mxCell>
        <mxCell id="nSnMv2GYE71Fe18mCQMV-58" value="" style="endArrow=classic;html=1;exitX=1;exitY=0.5;exitDx=0;exitDy=0;entryX=0;entryY=0.5;entryDx=0;entryDy=0;" edge="1" parent="1" target="nSnMv2GYE71Fe18mCQMV-17">
          <mxGeometry width="50" height="50" relative="1" as="geometry">
            <mxPoint x="195" y="435.3" as="sourcePoint" />
            <mxPoint x="305.84000000000015" y="519.84" as="targetPoint" />
          </mxGeometry>
        </mxCell>
        <mxCell id="nSnMv2GYE71Fe18mCQMV-59" value="" style="endArrow=classic;html=1;entryX=0.015;entryY=0.403;entryDx=0;entryDy=0;exitX=1;exitY=0.5;exitDx=0;exitDy=0;entryPerimeter=0;" edge="1" parent="1" target="nSnMv2GYE71Fe18mCQMV-16">
          <mxGeometry width="50" height="50" relative="1" as="geometry">
            <mxPoint x="195" y="435.3" as="sourcePoint" />
            <mxPoint x="309.3933982822018" y="554.6933982822018" as="targetPoint" />
          </mxGeometry>
        </mxCell>
        <mxCell id="nSnMv2GYE71Fe18mCQMV-60" value="" style="endArrow=classic;html=1;entryX=0;entryY=0.5;entryDx=0;entryDy=0;exitX=1;exitY=0.5;exitDx=0;exitDy=0;" edge="1" parent="1" target="nSnMv2GYE71Fe18mCQMV-15">
          <mxGeometry width="50" height="50" relative="1" as="geometry">
            <mxPoint x="195" y="435.3" as="sourcePoint" />
            <mxPoint x="309.3933982822018" y="594.6933982822018" as="targetPoint" />
          </mxGeometry>
        </mxCell>
        <mxCell id="nSnMv2GYE71Fe18mCQMV-61" value="" style="endArrow=classic;html=1;exitX=1;exitY=0.5;exitDx=0;exitDy=0;entryX=-0.007;entryY=0.704;entryDx=0;entryDy=0;entryPerimeter=0;" edge="1" parent="1" target="nSnMv2GYE71Fe18mCQMV-18">
          <mxGeometry width="50" height="50" relative="1" as="geometry">
            <mxPoint x="195" y="475.3" as="sourcePoint" />
            <mxPoint x="305" y="395.3" as="targetPoint" />
          </mxGeometry>
        </mxCell>
        <mxCell id="nSnMv2GYE71Fe18mCQMV-62" value="" style="endArrow=classic;html=1;exitX=1;exitY=0.5;exitDx=0;exitDy=0;" edge="1" parent="1">
          <mxGeometry width="50" height="50" relative="1" as="geometry">
            <mxPoint x="195" y="475.3" as="sourcePoint" />
            <mxPoint x="305" y="310" as="targetPoint" />
          </mxGeometry>
        </mxCell>
        <mxCell id="nSnMv2GYE71Fe18mCQMV-63" value="" style="endArrow=classic;html=1;entryX=0;entryY=0.5;entryDx=0;entryDy=0;exitX=1;exitY=0.5;exitDx=0;exitDy=0;" edge="1" parent="1" target="nSnMv2GYE71Fe18mCQMV-20">
          <mxGeometry width="50" height="50" relative="1" as="geometry">
            <mxPoint x="195" y="475.3" as="sourcePoint" />
            <mxPoint x="305" y="475.3" as="targetPoint" />
          </mxGeometry>
        </mxCell>
        <mxCell id="nSnMv2GYE71Fe18mCQMV-64" value="" style="endArrow=classic;html=1;exitX=1;exitY=0.5;exitDx=0;exitDy=0;entryX=0;entryY=0.5;entryDx=0;entryDy=0;" edge="1" parent="1" target="nSnMv2GYE71Fe18mCQMV-17">
          <mxGeometry width="50" height="50" relative="1" as="geometry">
            <mxPoint x="195" y="475.3" as="sourcePoint" />
            <mxPoint x="305.84000000000015" y="559.84" as="targetPoint" />
          </mxGeometry>
        </mxCell>
        <mxCell id="nSnMv2GYE71Fe18mCQMV-65" value="" style="endArrow=classic;html=1;entryX=-0.007;entryY=0.424;entryDx=0;entryDy=0;exitX=1;exitY=0.5;exitDx=0;exitDy=0;entryPerimeter=0;" edge="1" parent="1" target="nSnMv2GYE71Fe18mCQMV-16">
          <mxGeometry width="50" height="50" relative="1" as="geometry">
            <mxPoint x="195" y="475.3" as="sourcePoint" />
            <mxPoint x="309.3933982822018" y="594.6933982822018" as="targetPoint" />
          </mxGeometry>
        </mxCell>
        <mxCell id="nSnMv2GYE71Fe18mCQMV-66" value="" style="endArrow=classic;html=1;entryX=0;entryY=0.5;entryDx=0;entryDy=0;exitX=1;exitY=0.5;exitDx=0;exitDy=0;" edge="1" parent="1" source="nSnMv2GYE71Fe18mCQMV-7" target="nSnMv2GYE71Fe18mCQMV-15">
          <mxGeometry width="50" height="50" relative="1" as="geometry">
            <mxPoint x="195" y="475.3" as="sourcePoint" />
            <mxPoint x="309.3933982822018" y="634.6933982822018" as="targetPoint" />
          </mxGeometry>
        </mxCell>
        <mxCell id="nSnMv2GYE71Fe18mCQMV-67" value="" style="endArrow=classic;html=1;exitX=1;exitY=0.5;exitDx=0;exitDy=0;entryX=0.068;entryY=0.736;entryDx=0;entryDy=0;entryPerimeter=0;" edge="1" parent="1" source="nSnMv2GYE71Fe18mCQMV-4" target="nSnMv2GYE71Fe18mCQMV-18">
          <mxGeometry width="50" height="50" relative="1" as="geometry">
            <mxPoint x="195" y="510" as="sourcePoint" />
            <mxPoint x="305" y="430" as="targetPoint" />
          </mxGeometry>
        </mxCell>
        <mxCell id="nSnMv2GYE71Fe18mCQMV-68" value="" style="endArrow=classic;html=1;entryX=0;entryY=0.5;entryDx=0;entryDy=0;exitX=1;exitY=0.5;exitDx=0;exitDy=0;" edge="1" parent="1" source="nSnMv2GYE71Fe18mCQMV-4" target="nSnMv2GYE71Fe18mCQMV-19">
          <mxGeometry width="50" height="50" relative="1" as="geometry">
            <mxPoint x="195" y="510" as="sourcePoint" />
            <mxPoint x="305" y="470" as="targetPoint" />
          </mxGeometry>
        </mxCell>
        <mxCell id="nSnMv2GYE71Fe18mCQMV-69" value="" style="endArrow=classic;html=1;entryX=0;entryY=0.5;entryDx=0;entryDy=0;exitX=1;exitY=0.5;exitDx=0;exitDy=0;" edge="1" parent="1" source="nSnMv2GYE71Fe18mCQMV-4" target="nSnMv2GYE71Fe18mCQMV-20">
          <mxGeometry width="50" height="50" relative="1" as="geometry">
            <mxPoint x="195" y="510" as="sourcePoint" />
            <mxPoint x="305" y="510" as="targetPoint" />
          </mxGeometry>
        </mxCell>
        <mxCell id="nSnMv2GYE71Fe18mCQMV-70" value="" style="endArrow=classic;html=1;exitX=1;exitY=0.5;exitDx=0;exitDy=0;entryX=0;entryY=0.5;entryDx=0;entryDy=0;" edge="1" parent="1" source="nSnMv2GYE71Fe18mCQMV-4" target="nSnMv2GYE71Fe18mCQMV-17">
          <mxGeometry width="50" height="50" relative="1" as="geometry">
            <mxPoint x="195" y="510" as="sourcePoint" />
            <mxPoint x="306" y="430" as="targetPoint" />
          </mxGeometry>
        </mxCell>
        <mxCell id="nSnMv2GYE71Fe18mCQMV-71" value="" style="endArrow=classic;html=1;entryX=0;entryY=0.5;entryDx=0;entryDy=0;exitX=1;exitY=0.5;exitDx=0;exitDy=0;" edge="1" parent="1" source="nSnMv2GYE71Fe18mCQMV-4" target="nSnMv2GYE71Fe18mCQMV-16">
          <mxGeometry width="50" height="50" relative="1" as="geometry">
            <mxPoint x="195" y="510" as="sourcePoint" />
            <mxPoint x="309.3933982822018" y="629.3933982822018" as="targetPoint" />
          </mxGeometry>
        </mxCell>
        <mxCell id="nSnMv2GYE71Fe18mCQMV-72" value="" style="endArrow=classic;html=1;exitX=1;exitY=0.5;exitDx=0;exitDy=0;" edge="1" parent="1" source="nSnMv2GYE71Fe18mCQMV-4" target="nSnMv2GYE71Fe18mCQMV-15">
          <mxGeometry width="50" height="50" relative="1" as="geometry">
            <mxPoint x="195" y="510" as="sourcePoint" />
            <mxPoint x="309.3933982822018" y="669.3933982822018" as="targetPoint" />
          </mxGeometry>
        </mxCell>
        <mxCell id="nSnMv2GYE71Fe18mCQMV-73" value="" style="endArrow=classic;html=1;entryX=0;entryY=0.5;entryDx=0;entryDy=0;" edge="1" parent="1">
          <mxGeometry width="50" height="50" relative="1" as="geometry">
            <mxPoint x="335" y="264.16" as="sourcePoint" />
            <mxPoint x="445" y="264.6599999999998" as="targetPoint" />
          </mxGeometry>
        </mxCell>
        <mxCell id="nSnMv2GYE71Fe18mCQMV-74" value="" style="endArrow=classic;html=1;entryX=0;entryY=0.5;entryDx=0;entryDy=0;exitX=1;exitY=0.5;exitDx=0;exitDy=0;" edge="1" parent="1">
          <mxGeometry width="50" height="50" relative="1" as="geometry">
            <mxPoint x="335" y="264.6599999999998" as="sourcePoint" />
            <mxPoint x="445" y="304.6599999999998" as="targetPoint" />
          </mxGeometry>
        </mxCell>
        <mxCell id="nSnMv2GYE71Fe18mCQMV-75" value="" style="endArrow=classic;html=1;entryX=0;entryY=0.5;entryDx=0;entryDy=0;exitX=1;exitY=0.5;exitDx=0;exitDy=0;" edge="1" parent="1">
          <mxGeometry width="50" height="50" relative="1" as="geometry">
            <mxPoint x="335" y="264.6599999999998" as="sourcePoint" />
            <mxPoint x="445" y="344.6599999999998" as="targetPoint" />
          </mxGeometry>
        </mxCell>
        <mxCell id="nSnMv2GYE71Fe18mCQMV-76" value="" style="endArrow=classic;html=1;exitX=1;exitY=0.5;exitDx=0;exitDy=0;" edge="1" parent="1">
          <mxGeometry width="50" height="50" relative="1" as="geometry">
            <mxPoint x="335" y="264.6599999999998" as="sourcePoint" />
            <mxPoint x="445" y="429.6599999999998" as="targetPoint" />
          </mxGeometry>
        </mxCell>
        <mxCell id="nSnMv2GYE71Fe18mCQMV-77" value="" style="endArrow=classic;html=1;entryX=0;entryY=0;entryDx=0;entryDy=0;exitX=1;exitY=0.5;exitDx=0;exitDy=0;" edge="1" parent="1">
          <mxGeometry width="50" height="50" relative="1" as="geometry">
            <mxPoint x="335" y="264.6599999999998" as="sourcePoint" />
            <mxPoint x="449.3933982822018" y="464.05339828220184" as="targetPoint" />
          </mxGeometry>
        </mxCell>
        <mxCell id="nSnMv2GYE71Fe18mCQMV-78" value="" style="endArrow=classic;html=1;entryX=0;entryY=0;entryDx=0;entryDy=0;" edge="1" parent="1">
          <mxGeometry width="50" height="50" relative="1" as="geometry">
            <mxPoint x="340" y="269.6599999999998" as="sourcePoint" />
            <mxPoint x="449.3933982822018" y="504.05339828220184" as="targetPoint" />
          </mxGeometry>
        </mxCell>
        <mxCell id="nSnMv2GYE71Fe18mCQMV-79" value="" style="endArrow=classic;html=1;exitX=1;exitY=0.5;exitDx=0;exitDy=0;entryX=0;entryY=0.5;entryDx=0;entryDy=0;" edge="1" parent="1">
          <mxGeometry width="50" height="50" relative="1" as="geometry">
            <mxPoint x="335" y="304.6599999999998" as="sourcePoint" />
            <mxPoint x="445" y="264.6599999999998" as="targetPoint" />
          </mxGeometry>
        </mxCell>
        <mxCell id="nSnMv2GYE71Fe18mCQMV-80" value="" style="endArrow=classic;html=1;entryX=0;entryY=0.5;entryDx=0;entryDy=0;exitX=1;exitY=0.5;exitDx=0;exitDy=0;" edge="1" parent="1">
          <mxGeometry width="50" height="50" relative="1" as="geometry">
            <mxPoint x="335" y="304.6599999999998" as="sourcePoint" />
            <mxPoint x="445" y="304.6599999999998" as="targetPoint" />
          </mxGeometry>
        </mxCell>
        <mxCell id="nSnMv2GYE71Fe18mCQMV-81" value="" style="endArrow=classic;html=1;entryX=0;entryY=0.5;entryDx=0;entryDy=0;exitX=1;exitY=0.5;exitDx=0;exitDy=0;" edge="1" parent="1">
          <mxGeometry width="50" height="50" relative="1" as="geometry">
            <mxPoint x="335" y="304.6599999999998" as="sourcePoint" />
            <mxPoint x="445" y="344.6599999999998" as="targetPoint" />
          </mxGeometry>
        </mxCell>
        <mxCell id="nSnMv2GYE71Fe18mCQMV-82" value="" style="endArrow=classic;html=1;exitX=1;exitY=0.5;exitDx=0;exitDy=0;entryX=0.027;entryY=0.336;entryDx=0;entryDy=0;entryPerimeter=0;" edge="1" parent="1">
          <mxGeometry width="50" height="50" relative="1" as="geometry">
            <mxPoint x="335" y="304.6599999999998" as="sourcePoint" />
            <mxPoint x="445.80999999999995" y="429.73999999999995" as="targetPoint" />
          </mxGeometry>
        </mxCell>
        <mxCell id="nSnMv2GYE71Fe18mCQMV-83" value="" style="endArrow=classic;html=1;entryX=0;entryY=0;entryDx=0;entryDy=0;exitX=1;exitY=0.5;exitDx=0;exitDy=0;" edge="1" parent="1">
          <mxGeometry width="50" height="50" relative="1" as="geometry">
            <mxPoint x="335" y="304.6599999999998" as="sourcePoint" />
            <mxPoint x="449.3933982822018" y="464.05339828220184" as="targetPoint" />
          </mxGeometry>
        </mxCell>
        <mxCell id="nSnMv2GYE71Fe18mCQMV-84" value="" style="endArrow=classic;html=1;entryX=0;entryY=0;entryDx=0;entryDy=0;exitX=1;exitY=0.5;exitDx=0;exitDy=0;" edge="1" parent="1">
          <mxGeometry width="50" height="50" relative="1" as="geometry">
            <mxPoint x="335" y="304.6599999999998" as="sourcePoint" />
            <mxPoint x="449.3933982822018" y="504.05339828220184" as="targetPoint" />
          </mxGeometry>
        </mxCell>
        <mxCell id="nSnMv2GYE71Fe18mCQMV-85" value="" style="endArrow=classic;html=1;exitX=1;exitY=0.5;exitDx=0;exitDy=0;entryX=0;entryY=0.5;entryDx=0;entryDy=0;" edge="1" parent="1">
          <mxGeometry width="50" height="50" relative="1" as="geometry">
            <mxPoint x="335" y="344.6599999999998" as="sourcePoint" />
            <mxPoint x="445" y="264.6599999999998" as="targetPoint" />
          </mxGeometry>
        </mxCell>
        <mxCell id="nSnMv2GYE71Fe18mCQMV-86" value="" style="endArrow=classic;html=1;entryX=0;entryY=0.5;entryDx=0;entryDy=0;exitX=1;exitY=0.5;exitDx=0;exitDy=0;" edge="1" parent="1">
          <mxGeometry width="50" height="50" relative="1" as="geometry">
            <mxPoint x="335" y="344.6599999999998" as="sourcePoint" />
            <mxPoint x="445" y="304.6599999999998" as="targetPoint" />
          </mxGeometry>
        </mxCell>
        <mxCell id="nSnMv2GYE71Fe18mCQMV-87" value="" style="endArrow=classic;html=1;entryX=0;entryY=0.5;entryDx=0;entryDy=0;exitX=1;exitY=0.5;exitDx=0;exitDy=0;" edge="1" parent="1">
          <mxGeometry width="50" height="50" relative="1" as="geometry">
            <mxPoint x="335" y="344.6599999999998" as="sourcePoint" />
            <mxPoint x="445" y="344.6599999999998" as="targetPoint" />
          </mxGeometry>
        </mxCell>
        <mxCell id="nSnMv2GYE71Fe18mCQMV-88" value="" style="endArrow=classic;html=1;exitX=1;exitY=0.5;exitDx=0;exitDy=0;entryX=0.028;entryY=0.318;entryDx=0;entryDy=0;entryPerimeter=0;" edge="1" parent="1">
          <mxGeometry width="50" height="50" relative="1" as="geometry">
            <mxPoint x="335" y="344.6599999999998" as="sourcePoint" />
            <mxPoint x="445.8399999999997" y="429.19999999999976" as="targetPoint" />
          </mxGeometry>
        </mxCell>
        <mxCell id="nSnMv2GYE71Fe18mCQMV-89" value="" style="endArrow=classic;html=1;entryX=0;entryY=0;entryDx=0;entryDy=0;exitX=1;exitY=0.5;exitDx=0;exitDy=0;" edge="1" parent="1">
          <mxGeometry width="50" height="50" relative="1" as="geometry">
            <mxPoint x="335" y="344.6599999999998" as="sourcePoint" />
            <mxPoint x="449.3933982822018" y="464.05339828220184" as="targetPoint" />
          </mxGeometry>
        </mxCell>
        <mxCell id="nSnMv2GYE71Fe18mCQMV-90" value="" style="endArrow=classic;html=1;entryX=0;entryY=0;entryDx=0;entryDy=0;exitX=1;exitY=0.5;exitDx=0;exitDy=0;" edge="1" parent="1">
          <mxGeometry width="50" height="50" relative="1" as="geometry">
            <mxPoint x="335" y="344.6599999999998" as="sourcePoint" />
            <mxPoint x="449.3933982822018" y="504.05339828220184" as="targetPoint" />
          </mxGeometry>
        </mxCell>
        <mxCell id="nSnMv2GYE71Fe18mCQMV-91" value="" style="endArrow=classic;html=1;exitX=1;exitY=0.5;exitDx=0;exitDy=0;" edge="1" parent="1">
          <mxGeometry width="50" height="50" relative="1" as="geometry">
            <mxPoint x="335" y="434.96" as="sourcePoint" />
            <mxPoint x="445" y="269.6599999999998" as="targetPoint" />
          </mxGeometry>
        </mxCell>
        <mxCell id="nSnMv2GYE71Fe18mCQMV-92" value="" style="endArrow=classic;html=1;entryX=0;entryY=0.5;entryDx=0;entryDy=0;exitX=1;exitY=0.5;exitDx=0;exitDy=0;" edge="1" parent="1">
          <mxGeometry width="50" height="50" relative="1" as="geometry">
            <mxPoint x="335" y="434.96" as="sourcePoint" />
            <mxPoint x="445" y="304.6599999999998" as="targetPoint" />
          </mxGeometry>
        </mxCell>
        <mxCell id="nSnMv2GYE71Fe18mCQMV-93" value="" style="endArrow=classic;html=1;exitX=1;exitY=0.5;exitDx=0;exitDy=0;" edge="1" parent="1">
          <mxGeometry width="50" height="50" relative="1" as="geometry">
            <mxPoint x="335" y="434.96" as="sourcePoint" />
            <mxPoint x="445" y="349.6599999999998" as="targetPoint" />
          </mxGeometry>
        </mxCell>
        <mxCell id="nSnMv2GYE71Fe18mCQMV-94" value="" style="endArrow=classic;html=1;exitX=1;exitY=0.5;exitDx=0;exitDy=0;entryX=0;entryY=0.5;entryDx=0;entryDy=0;" edge="1" parent="1">
          <mxGeometry width="50" height="50" relative="1" as="geometry">
            <mxPoint x="335" y="434.96" as="sourcePoint" />
            <mxPoint x="445" y="434.6599999999998" as="targetPoint" />
          </mxGeometry>
        </mxCell>
        <mxCell id="nSnMv2GYE71Fe18mCQMV-95" value="" style="endArrow=classic;html=1;entryX=0.015;entryY=0.403;entryDx=0;entryDy=0;exitX=1;exitY=0.5;exitDx=0;exitDy=0;entryPerimeter=0;" edge="1" parent="1">
          <mxGeometry width="50" height="50" relative="1" as="geometry">
            <mxPoint x="335" y="434.96" as="sourcePoint" />
            <mxPoint x="445.4499999999998" y="471.74999999999994" as="targetPoint" />
          </mxGeometry>
        </mxCell>
        <mxCell id="nSnMv2GYE71Fe18mCQMV-96" value="" style="endArrow=classic;html=1;entryX=0;entryY=0.5;entryDx=0;entryDy=0;exitX=1;exitY=0.5;exitDx=0;exitDy=0;" edge="1" parent="1">
          <mxGeometry width="50" height="50" relative="1" as="geometry">
            <mxPoint x="335" y="434.96" as="sourcePoint" />
            <mxPoint x="445" y="514.6599999999997" as="targetPoint" />
          </mxGeometry>
        </mxCell>
        <mxCell id="nSnMv2GYE71Fe18mCQMV-97" value="" style="endArrow=classic;html=1;exitX=1;exitY=0.5;exitDx=0;exitDy=0;entryX=-0.007;entryY=0.704;entryDx=0;entryDy=0;entryPerimeter=0;" edge="1" parent="1">
          <mxGeometry width="50" height="50" relative="1" as="geometry">
            <mxPoint x="335" y="474.96" as="sourcePoint" />
            <mxPoint x="444.78999999999996" y="270.7799999999999" as="targetPoint" />
          </mxGeometry>
        </mxCell>
        <mxCell id="nSnMv2GYE71Fe18mCQMV-98" value="" style="endArrow=classic;html=1;exitX=1;exitY=0.5;exitDx=0;exitDy=0;" edge="1" parent="1">
          <mxGeometry width="50" height="50" relative="1" as="geometry">
            <mxPoint x="335" y="474.96" as="sourcePoint" />
            <mxPoint x="445" y="309.6599999999998" as="targetPoint" />
          </mxGeometry>
        </mxCell>
        <mxCell id="nSnMv2GYE71Fe18mCQMV-99" value="" style="endArrow=classic;html=1;entryX=0;entryY=0.5;entryDx=0;entryDy=0;exitX=1;exitY=0.5;exitDx=0;exitDy=0;" edge="1" parent="1">
          <mxGeometry width="50" height="50" relative="1" as="geometry">
            <mxPoint x="335" y="474.96" as="sourcePoint" />
            <mxPoint x="445" y="344.6599999999998" as="targetPoint" />
          </mxGeometry>
        </mxCell>
        <mxCell id="nSnMv2GYE71Fe18mCQMV-100" value="" style="endArrow=classic;html=1;exitX=1;exitY=0.5;exitDx=0;exitDy=0;entryX=0;entryY=0.5;entryDx=0;entryDy=0;" edge="1" parent="1">
          <mxGeometry width="50" height="50" relative="1" as="geometry">
            <mxPoint x="335" y="474.96" as="sourcePoint" />
            <mxPoint x="445" y="434.6599999999998" as="targetPoint" />
          </mxGeometry>
        </mxCell>
        <mxCell id="nSnMv2GYE71Fe18mCQMV-101" value="" style="endArrow=classic;html=1;entryX=-0.007;entryY=0.424;entryDx=0;entryDy=0;exitX=1;exitY=0.5;exitDx=0;exitDy=0;entryPerimeter=0;" edge="1" parent="1">
          <mxGeometry width="50" height="50" relative="1" as="geometry">
            <mxPoint x="335" y="474.96" as="sourcePoint" />
            <mxPoint x="444.78999999999996" y="472.3799999999998" as="targetPoint" />
          </mxGeometry>
        </mxCell>
        <mxCell id="nSnMv2GYE71Fe18mCQMV-102" value="" style="endArrow=classic;html=1;entryX=0;entryY=0.5;entryDx=0;entryDy=0;exitX=1;exitY=0.5;exitDx=0;exitDy=0;" edge="1" parent="1">
          <mxGeometry width="50" height="50" relative="1" as="geometry">
            <mxPoint x="335" y="474.6599999999998" as="sourcePoint" />
            <mxPoint x="445" y="514.6599999999997" as="targetPoint" />
          </mxGeometry>
        </mxCell>
        <mxCell id="nSnMv2GYE71Fe18mCQMV-103" value="" style="endArrow=classic;html=1;exitX=1;exitY=0.5;exitDx=0;exitDy=0;entryX=0.068;entryY=0.736;entryDx=0;entryDy=0;entryPerimeter=0;" edge="1" parent="1">
          <mxGeometry width="50" height="50" relative="1" as="geometry">
            <mxPoint x="335" y="514.6599999999997" as="sourcePoint" />
            <mxPoint x="447.03999999999996" y="271.73999999999995" as="targetPoint" />
          </mxGeometry>
        </mxCell>
        <mxCell id="nSnMv2GYE71Fe18mCQMV-104" value="" style="endArrow=classic;html=1;entryX=0;entryY=0.5;entryDx=0;entryDy=0;exitX=1;exitY=0.5;exitDx=0;exitDy=0;" edge="1" parent="1">
          <mxGeometry width="50" height="50" relative="1" as="geometry">
            <mxPoint x="335" y="514.6599999999997" as="sourcePoint" />
            <mxPoint x="445" y="304.6599999999998" as="targetPoint" />
          </mxGeometry>
        </mxCell>
        <mxCell id="nSnMv2GYE71Fe18mCQMV-105" value="" style="endArrow=classic;html=1;entryX=0;entryY=0.5;entryDx=0;entryDy=0;exitX=1;exitY=0.5;exitDx=0;exitDy=0;" edge="1" parent="1">
          <mxGeometry width="50" height="50" relative="1" as="geometry">
            <mxPoint x="335" y="514.6599999999997" as="sourcePoint" />
            <mxPoint x="445" y="344.6599999999998" as="targetPoint" />
          </mxGeometry>
        </mxCell>
        <mxCell id="nSnMv2GYE71Fe18mCQMV-106" value="" style="endArrow=classic;html=1;exitX=1;exitY=0.5;exitDx=0;exitDy=0;entryX=0;entryY=0.5;entryDx=0;entryDy=0;" edge="1" parent="1">
          <mxGeometry width="50" height="50" relative="1" as="geometry">
            <mxPoint x="335" y="514.6599999999997" as="sourcePoint" />
            <mxPoint x="445" y="434.6599999999998" as="targetPoint" />
          </mxGeometry>
        </mxCell>
        <mxCell id="nSnMv2GYE71Fe18mCQMV-107" value="" style="endArrow=classic;html=1;entryX=0;entryY=0.5;entryDx=0;entryDy=0;exitX=1;exitY=0.5;exitDx=0;exitDy=0;" edge="1" parent="1">
          <mxGeometry width="50" height="50" relative="1" as="geometry">
            <mxPoint x="335" y="514.6599999999997" as="sourcePoint" />
            <mxPoint x="445" y="474.6599999999998" as="targetPoint" />
          </mxGeometry>
        </mxCell>
        <mxCell id="nSnMv2GYE71Fe18mCQMV-108" value="" style="endArrow=classic;html=1;exitX=1;exitY=0.5;exitDx=0;exitDy=0;" edge="1" parent="1">
          <mxGeometry width="50" height="50" relative="1" as="geometry">
            <mxPoint x="335" y="514.6599999999997" as="sourcePoint" />
            <mxPoint x="445" y="514.6599999999997" as="targetPoint" />
          </mxGeometry>
        </mxCell>
        <mxCell id="nSnMv2GYE71Fe18mCQMV-109" value="" style="endArrow=classic;html=1;" edge="1" parent="1">
          <mxGeometry width="50" height="50" relative="1" as="geometry">
            <mxPoint x="475" y="264.16" as="sourcePoint" />
            <mxPoint x="540" y="265.1599999999998" as="targetPoint" />
          </mxGeometry>
        </mxCell>
        <mxCell id="nSnMv2GYE71Fe18mCQMV-110" value="" style="endArrow=classic;html=1;" edge="1" parent="1">
          <mxGeometry width="50" height="50" relative="1" as="geometry">
            <mxPoint x="475" y="304.66" as="sourcePoint" />
            <mxPoint x="540.0011717376888" y="305.4725146467212" as="targetPoint" />
          </mxGeometry>
        </mxCell>
        <mxCell id="nSnMv2GYE71Fe18mCQMV-111" value="" style="endArrow=classic;html=1;" edge="1" parent="1">
          <mxGeometry width="50" height="50" relative="1" as="geometry">
            <mxPoint x="475" y="344.66" as="sourcePoint" />
            <mxPoint x="540.0011717376888" y="345.4725146467212" as="targetPoint" />
          </mxGeometry>
        </mxCell>
        <mxCell id="nSnMv2GYE71Fe18mCQMV-112" value="" style="endArrow=classic;html=1;" edge="1" parent="1">
          <mxGeometry width="50" height="50" relative="1" as="geometry">
            <mxPoint x="475" y="434.66" as="sourcePoint" />
            <mxPoint x="540.0011717376888" y="435.4725146467212" as="targetPoint" />
          </mxGeometry>
        </mxCell>
        <mxCell id="nSnMv2GYE71Fe18mCQMV-113" value="" style="endArrow=classic;html=1;" edge="1" parent="1">
          <mxGeometry width="50" height="50" relative="1" as="geometry">
            <mxPoint x="475" y="474.66" as="sourcePoint" />
            <mxPoint x="540.0011717376888" y="475.4725146467212" as="targetPoint" />
          </mxGeometry>
        </mxCell>
        <mxCell id="nSnMv2GYE71Fe18mCQMV-114" value="" style="endArrow=classic;html=1;" edge="1" parent="1">
          <mxGeometry width="50" height="50" relative="1" as="geometry">
            <mxPoint x="475" y="514.66" as="sourcePoint" />
            <mxPoint x="540.0011717376888" y="515.4725146467212" as="targetPoint" />
          </mxGeometry>
        </mxCell>
        <mxCell id="nSnMv2GYE71Fe18mCQMV-115" value="Input Layer" style="text;html=1;strokeColor=none;fillColor=none;align=center;verticalAlign=middle;whiteSpace=wrap;rounded=0;" vertex="1" parent="1">
          <mxGeometry x="140" y="560" width="80" height="20" as="geometry" />
        </mxCell>
        <mxCell id="nSnMv2GYE71Fe18mCQMV-116" value="Output Layer" style="text;html=1;strokeColor=none;fillColor=none;align=center;verticalAlign=middle;whiteSpace=wrap;rounded=0;" vertex="1" parent="1">
          <mxGeometry x="420" y="560" width="80" height="20" as="geometry" />
        </mxCell>
        <mxCell id="nSnMv2GYE71Fe18mCQMV-117" value="Hidden Layer" style="text;html=1;strokeColor=none;fillColor=none;align=center;verticalAlign=middle;whiteSpace=wrap;rounded=0;" vertex="1" parent="1">
          <mxGeometry x="280" y="560" width="80" height="20" as="geometry" />
        </mxCell>
        <mxCell id="nSnMv2GYE71Fe18mCQMV-118" value="X1" style="text;html=1;strokeColor=none;fillColor=none;align=center;verticalAlign=middle;whiteSpace=wrap;rounded=0;" vertex="1" parent="1">
          <mxGeometry x="70" y="240" width="80" height="20" as="geometry" />
        </mxCell>
        <mxCell id="nSnMv2GYE71Fe18mCQMV-119" value="X2" style="text;html=1;strokeColor=none;fillColor=none;align=center;verticalAlign=middle;whiteSpace=wrap;rounded=0;" vertex="1" parent="1">
          <mxGeometry x="70" y="280" width="80" height="20" as="geometry" />
        </mxCell>
        <mxCell id="nSnMv2GYE71Fe18mCQMV-120" value="X3" style="text;html=1;strokeColor=none;fillColor=none;align=center;verticalAlign=middle;whiteSpace=wrap;rounded=0;" vertex="1" parent="1">
          <mxGeometry x="70" y="320" width="80" height="20" as="geometry" />
        </mxCell>
        <mxCell id="nSnMv2GYE71Fe18mCQMV-121" value="X3134" style="text;html=1;strokeColor=none;fillColor=none;align=center;verticalAlign=middle;whiteSpace=wrap;rounded=0;" vertex="1" parent="1">
          <mxGeometry x="70" y="409" width="80" height="20" as="geometry" />
        </mxCell>
        <mxCell id="nSnMv2GYE71Fe18mCQMV-122" value="X3135" style="text;html=1;strokeColor=none;fillColor=none;align=center;verticalAlign=middle;whiteSpace=wrap;rounded=0;" vertex="1" parent="1">
          <mxGeometry x="70" y="450" width="80" height="20" as="geometry" />
        </mxCell>
        <mxCell id="nSnMv2GYE71Fe18mCQMV-123" value="X3136" style="text;html=1;strokeColor=none;fillColor=none;align=center;verticalAlign=middle;whiteSpace=wrap;rounded=0;" vertex="1" parent="1">
          <mxGeometry x="70" y="490" width="80" height="20" as="geometry" />
        </mxCell>
        <mxCell id="nSnMv2GYE71Fe18mCQMV-124" value="Y1" style="text;html=1;strokeColor=none;fillColor=none;align=center;verticalAlign=middle;whiteSpace=wrap;rounded=0;" vertex="1" parent="1">
          <mxGeometry x="475" y="240" width="80" height="20" as="geometry" />
        </mxCell>
        <mxCell id="nSnMv2GYE71Fe18mCQMV-125" value="Y2" style="text;html=1;strokeColor=none;fillColor=none;align=center;verticalAlign=middle;whiteSpace=wrap;rounded=0;" vertex="1" parent="1">
          <mxGeometry x="475" y="280" width="80" height="20" as="geometry" />
        </mxCell>
        <mxCell id="nSnMv2GYE71Fe18mCQMV-126" value="Y3" style="text;html=1;strokeColor=none;fillColor=none;align=center;verticalAlign=middle;whiteSpace=wrap;rounded=0;" vertex="1" parent="1">
          <mxGeometry x="475" y="320" width="80" height="20" as="geometry" />
        </mxCell>
        <mxCell id="nSnMv2GYE71Fe18mCQMV-127" value="Y62" style="text;html=1;strokeColor=none;fillColor=none;align=center;verticalAlign=middle;whiteSpace=wrap;rounded=0;" vertex="1" parent="1">
          <mxGeometry x="475" y="409" width="80" height="20" as="geometry" />
        </mxCell>
        <mxCell id="nSnMv2GYE71Fe18mCQMV-128" value="Y63" style="text;html=1;strokeColor=none;fillColor=none;align=center;verticalAlign=middle;whiteSpace=wrap;rounded=0;" vertex="1" parent="1">
          <mxGeometry x="475" y="450" width="80" height="20" as="geometry" />
        </mxCell>
        <mxCell id="nSnMv2GYE71Fe18mCQMV-129" value="Y64" style="text;html=1;strokeColor=none;fillColor=none;align=center;verticalAlign=middle;whiteSpace=wrap;rounded=0;" vertex="1" parent="1">
          <mxGeometry x="475" y="490" width="80" height="20" as="geometry" />
        </mxCell>
      </root>
    </mxGraphModel>
  </diagram>
</mxfile>
